<svg xmlns="http://www.w3.org/2000/svg" viewBox="0 0 800 500" width="800" height="500">
  <!-- Dark background matching dark card -->
  <rect width="800" height="500" fill="#0F172A"/>

  <!-- Top navigation bar -->
  <rect x="0" y="0" width="800" height="52" fill="#1E293B"/>
  <rect x="0" y="51" width="800" height="1" fill="#334155"/>

  <!-- Logo -->
  <rect x="20" y="14" width="24" height="24" rx="6" fill="#0D9488"/>
  <text x="32" y="30" text-anchor="middle" font-family="system-ui, sans-serif" font-size="11" font-weight="700" fill="white">HR</text>
  <text x="52" y="30" font-family="system-ui, sans-serif" font-size="13" font-weight="600" fill="white">Hutliv Realty</text>

  <!-- Nav items -->
  <text x="180" y="30" font-family="system-ui, sans-serif" font-size="12" fill="#94A3B8">Listings</text>
  <rect x="228" y="38" width="36" height="2" rx="1" fill="#0D9488"/>
  <text x="246" y="30" font-family="system-ui, sans-serif" font-size="12" font-weight="600" fill="white">Listings</text>
  <text x="308" y="30" font-family="system-ui, sans-serif" font-size="12" fill="#94A3B8">Enquiries</text>
  <text x="374" y="30" font-family="system-ui, sans-serif" font-size="12" fill="#94A3B8">Agents</text>
  <text x="430" y="30" font-family="system-ui, sans-serif" font-size="12" fill="#94A3B8">Website</text>
  <text x="490" y="30" font-family="system-ui, sans-serif" font-size="12" fill="#94A3B8">Reports</text>

  <!-- Nav right -->
  <rect x="650" y="14" width="92" height="26" rx="6" fill="#0D9488"/>
  <text x="696" y="31" text-anchor="middle" font-family="system-ui, sans-serif" font-size="11" font-weight="600" fill="white">+ New Listing</text>
  <circle cx="764" cy="27" r="13" fill="#334155"/>
  <text x="764" y="31" text-anchor="middle" font-family="system-ui, sans-serif" font-size="10" font-weight="600" fill="#94A3B8">JW</text>

  <!-- Page header -->
  <text x="24" y="80" font-family="system-ui, sans-serif" font-size="18" font-weight="700" fill="white">Property Listings</text>
  <text x="24" y="96" font-family="system-ui, sans-serif" font-size="12" fill="#64748B">24 active · 6 under offer · 3 sold this month</text>

  <!-- Stat cards row -->
  <!-- Card 1 -->
  <rect x="24" y="110" width="170" height="70" rx="10" fill="#1E293B" stroke="#334155" stroke-width="1"/>
  <text x="40" y="130" font-family="system-ui, sans-serif" font-size="10" fill="#64748B">TOTAL LISTINGS</text>
  <text x="40" y="154" font-family="system-ui, sans-serif" font-size="24" font-weight="700" fill="white">33</text>
  <text x="40" y="170" font-family="system-ui, sans-serif" font-size="10" fill="#0D9488">↑ 4 new this week</text>

  <!-- Card 2 -->
  <rect x="202" y="110" width="170" height="70" rx="10" fill="#1E293B" stroke="#334155" stroke-width="1"/>
  <text x="218" y="130" font-family="system-ui, sans-serif" font-size="10" fill="#64748B">OPEN ENQUIRIES</text>
  <text x="218" y="154" font-family="system-ui, sans-serif" font-size="24" font-weight="700" fill="white">18</text>
  <text x="218" y="170" font-family="system-ui, sans-serif" font-size="10" fill="#22D3EE">5 need follow-up</text>

  <!-- Card 3 -->
  <rect x="380" y="110" width="170" height="70" rx="10" fill="#1E293B" stroke="#334155" stroke-width="1"/>
  <text x="396" y="130" font-family="system-ui, sans-serif" font-size="10" fill="#64748B">AVG DAYS LISTED</text>
  <text x="396" y="154" font-family="system-ui, sans-serif" font-size="24" font-weight="700" fill="white">21d</text>
  <text x="396" y="170" font-family="system-ui, sans-serif" font-size="10" fill="#0D9488">↓ 3d vs last month</text>

  <!-- Card 4 -->
  <rect x="558" y="110" width="218" height="70" rx="10" fill="#0D9488" fill-opacity="0.15" stroke="#0D9488" stroke-width="1" stroke-opacity="0.4"/>
  <text x="574" y="130" font-family="system-ui, sans-serif" font-size="10" fill="#2DD4BF">TOTAL PORTFOLIO VALUE</text>
  <text x="574" y="154" font-family="system-ui, sans-serif" font-size="24" font-weight="700" fill="white">$24.8M</text>
  <text x="574" y="170" font-family="system-ui, sans-serif" font-size="10" fill="#2DD4BF">↑ 8.4% YoY growth</text>

  <!-- Listings table -->
  <rect x="24" y="196" width="490" height="290" rx="12" fill="#1E293B" stroke="#334155" stroke-width="1"/>

  <!-- Table header -->
  <rect x="24" y="196" width="490" height="36" rx="12" fill="#1E293B"/>
  <rect x="24" y="218" width="490" height="14" fill="#1E293B"/>
  <rect x="24" y="232" width="490" height="1" fill="#334155"/>
  <text x="44" y="218" font-family="system-ui, sans-serif" font-size="10" font-weight="600" fill="#64748B">PROPERTY</text>
  <text x="240" y="218" font-family="system-ui, sans-serif" font-size="10" font-weight="600" fill="#64748B">PRICE</text>
  <text x="310" y="218" font-family="system-ui, sans-serif" font-size="10" font-weight="600" fill="#64748B">STATUS</text>
  <text x="390" y="218" font-family="system-ui, sans-serif" font-size="10" font-weight="600" fill="#64748B">AGENT</text>
  <text x="460" y="218" font-family="system-ui, sans-serif" font-size="10" font-weight="600" fill="#64748B">ENQUIRIES</text>

  <!-- Row 1 - highlighted -->
  <rect x="25" y="233" width="488" height="46" fill="#0D9488" fill-opacity="0.08"/>
  <!-- Property image placeholder -->
  <rect x="40" y="241" width="52" height="36" rx="6" fill="#334155"/>
  <text x="66" y="262" text-anchor="middle" font-family="system-ui, sans-serif" font-size="8" fill="#64748B">4BR House</text>
  <text x="100" y="252" font-family="system-ui, sans-serif" font-size="11" font-weight="600" fill="white">42 Maple Street</text>
  <text x="100" y="265" font-family="system-ui, sans-serif" font-size="10" fill="#64748B">Toorak, VIC · 4bd 3ba</text>
  <text x="240" y="259" font-family="system-ui, sans-serif" font-size="12" font-weight="600" fill="white">$2.4M</text>
  <rect x="306" y="245" width="66" height="20" rx="5" fill="#0D9488" fill-opacity="0.25"/>
  <text x="339" y="259" text-anchor="middle" font-family="system-ui, sans-serif" font-size="9" font-weight="600" fill="#2DD4BF">Active</text>
  <text x="390" y="259" font-family="system-ui, sans-serif" font-size="11" fill="#94A3B8">M. Chen</text>
  <text x="468" y="259" text-anchor="middle" font-family="system-ui, sans-serif" font-size="11" font-weight="600" fill="white">7</text>

  <!-- Row 2 -->
  <rect x="25" y="279" width="488" height="1" fill="#334155" fill-opacity="0.5"/>
  <rect x="40" y="287" width="52" height="36" rx="6" fill="#1E3A5F"/>
  <text x="66" y="308" text-anchor="middle" font-family="system-ui, sans-serif" font-size="8" fill="#94A3B8">Apt Unit</text>
  <text x="100" y="298" font-family="system-ui, sans-serif" font-size="11" font-weight="600" fill="white">Unit 12, Bay View</text>
  <text x="100" y="311" font-family="system-ui, sans-serif" font-size="10" fill="#64748B">South Yarra, VIC · 2bd 1ba</text>
  <text x="240" y="305" font-family="system-ui, sans-serif" font-size="12" font-weight="600" fill="white">$680K</text>
  <rect x="306" y="291" width="76" height="20" rx="5" fill="#854D0E" fill-opacity="0.4"/>
  <text x="344" y="305" text-anchor="middle" font-family="system-ui, sans-serif" font-size="9" font-weight="600" fill="#FCD34D">Under Offer</text>
  <text x="390" y="305" font-family="system-ui, sans-serif" font-size="11" fill="#94A3B8">S. Patel</text>
  <text x="468" y="305" text-anchor="middle" font-family="system-ui, sans-serif" font-size="11" font-weight="600" fill="white">3</text>

  <!-- Row 3 -->
  <rect x="25" y="325" width="488" height="1" fill="#334155" fill-opacity="0.5"/>
  <rect x="40" y="333" width="52" height="36" rx="6" fill="#1C3B2A"/>
  <text x="66" y="354" text-anchor="middle" font-family="system-ui, sans-serif" font-size="8" fill="#86EFAC">Townhouse</text>
  <text x="100" y="344" font-family="system-ui, sans-serif" font-size="11" font-weight="600" fill="white">15 Oak Lane</text>
  <text x="100" y="357" font-family="system-ui, sans-serif" font-size="10" fill="#64748B">Richmond, VIC · 3bd 2ba</text>
  <text x="240" y="351" font-family="system-ui, sans-serif" font-size="12" font-weight="600" fill="white">$1.1M</text>
  <rect x="306" y="337" width="46" height="20" rx="5" fill="#166534" fill-opacity="0.5"/>
  <text x="329" y="351" text-anchor="middle" font-family="system-ui, sans-serif" font-size="9" font-weight="600" fill="#4ADE80">Sold</text>
  <text x="390" y="351" font-family="system-ui, sans-serif" font-size="11" fill="#94A3B8">L. Torres</text>
  <text x="468" y="351" text-anchor="middle" font-family="system-ui, sans-serif" font-size="11" font-weight="600" fill="white">11</text>

  <!-- Row 4 -->
  <rect x="25" y="371" width="488" height="1" fill="#334155" fill-opacity="0.5"/>
  <rect x="40" y="379" width="52" height="36" rx="6" fill="#2D1B69"/>
  <text x="66" y="400" text-anchor="middle" font-family="system-ui, sans-serif" font-size="8" fill="#C4B5FD">Penthouse</text>
  <text x="100" y="390" font-family="system-ui, sans-serif" font-size="11" font-weight="600" fill="white">PH3, The Emerald</text>
  <text x="100" y="403" font-family="system-ui, sans-serif" font-size="10" fill="#64748B">CBD, VIC · 3bd 2ba</text>
  <text x="240" y="397" font-family="system-ui, sans-serif" font-size="12" font-weight="600" fill="white">$3.8M</text>
  <rect x="306" y="383" width="66" height="20" rx="5" fill="#0D9488" fill-opacity="0.25"/>
  <text x="339" y="397" text-anchor="middle" font-family="system-ui, sans-serif" font-size="9" font-weight="600" fill="#2DD4BF">Active</text>
  <text x="390" y="397" font-family="system-ui, sans-serif" font-size="11" fill="#94A3B8">M. Chen</text>
  <text x="468" y="397" text-anchor="middle" font-family="system-ui, sans-serif" font-size="11" font-weight="600" fill="white">4</text>

  <!-- Row 5 -->
  <rect x="25" y="417" width="488" height="1" fill="#334155" fill-opacity="0.5"/>
  <rect x="40" y="425" width="52" height="36" rx="6" fill="#1E3A3A"/>
  <text x="66" y="446" text-anchor="middle" font-family="system-ui, sans-serif" font-size="8" fill="#67E8F9">Land</text>
  <text x="100" y="436" font-family="system-ui, sans-serif" font-size="11" font-weight="600" fill="white">Lot 7, Harvest Estate</text>
  <text x="100" y="449" font-family="system-ui, sans-serif" font-size="10" fill="#64748B">Geelong, VIC · 620m²</text>
  <text x="240" y="443" font-family="system-ui, sans-serif" font-size="12" font-weight="600" fill="white">$420K</text>
  <rect x="306" y="429" width="66" height="20" rx="5" fill="#0D9488" fill-opacity="0.25"/>
  <text x="339" y="443" text-anchor="middle" font-family="system-ui, sans-serif" font-size="9" font-weight="600" fill="#2DD4BF">Active</text>
  <text x="390" y="443" font-family="system-ui, sans-serif" font-size="11" fill="#94A3B8">S. Patel</text>
  <text x="468" y="443" text-anchor="middle" font-family="system-ui, sans-serif" font-size="11" font-weight="600" fill="white">2</text>

  <!-- Pagination row -->
  <rect x="24" y="474" width="490" height="1" fill="#334155"/>
  <text x="44" y="489" font-family="system-ui, sans-serif" font-size="10" fill="#64748B">Showing 5 of 33 listings</text>
  <rect x="400" y="478" width="50" height="22" rx="5" fill="#334155"/>
  <text x="425" y="493" text-anchor="middle" font-family="system-ui, sans-serif" font-size="10" fill="#94A3B8">1 2 3 →</text>

  <!-- Right panel - Enquiries feed -->
  <rect x="528" y="196" width="248" height="290" rx="12" fill="#1E293B" stroke="#334155" stroke-width="1"/>
  <text x="548" y="220" font-family="system-ui, sans-serif" font-size="13" font-weight="600" fill="white">Recent Enquiries</text>
  <rect x="528" y="228" width="248" height="1" fill="#334155"/>

  <!-- Enquiry 1 -->
  <circle cx="548" cy="252" r="14" fill="#0D4F6E"/>
  <text x="548" y="256" text-anchor="middle" font-family="system-ui, sans-serif" font-size="11" font-weight="600" fill="#67E8F9">DW</text>
  <text x="570" y="247" font-family="system-ui, sans-serif" font-size="11" font-weight="600" fill="white">David Wu</text>
  <text x="570" y="259" font-family="system-ui, sans-serif" font-size="10" fill="#64748B">42 Maple Street · 2h ago</text>
  <rect x="700" y="242" width="60" height="18" rx="5" fill="#0D9488" fill-opacity="0.25"/>
  <text x="730" y="254" text-anchor="middle" font-family="system-ui, sans-serif" font-size="9" fill="#2DD4BF">Inspection</text>
  <rect x="540" y="268" width="228" height="1" fill="#334155" fill-opacity="0.5"/>

  <!-- Enquiry 2 -->
  <circle cx="548" cy="290" r="14" fill="#3B2065"/>
  <text x="548" y="294" text-anchor="middle" font-family="system-ui, sans-serif" font-size="11" font-weight="600" fill="#C4B5FD">RM</text>
  <text x="570" y="285" font-family="system-ui, sans-serif" font-size="11" font-weight="600" fill="white">Riya Mehta</text>
  <text x="570" y="297" font-family="system-ui, sans-serif" font-size="10" fill="#64748B">PH3, The Emerald · 3h ago</text>
  <rect x="700" y="280" width="60" height="18" rx="5" fill="#854D0E" fill-opacity="0.4"/>
  <text x="730" y="292" text-anchor="middle" font-family="system-ui, sans-serif" font-size="9" fill="#FCD34D">Follow up</text>
  <rect x="540" y="306" width="228" height="1" fill="#334155" fill-opacity="0.5"/>

  <!-- Enquiry 3 -->
  <circle cx="548" cy="328" r="14" fill="#1C3B2A"/>
  <text x="548" y="332" text-anchor="middle" font-family="system-ui, sans-serif" font-size="11" font-weight="600" fill="#4ADE80">KL</text>
  <text x="570" y="323" font-family="system-ui, sans-serif" font-size="11" font-weight="600" fill="white">Karen Lim</text>
  <text x="570" y="335" font-family="system-ui, sans-serif" font-size="10" fill="#64748B">Unit 12, Bay View · 5h ago</text>
  <rect x="700" y="318" width="60" height="18" rx="5" fill="#166534" fill-opacity="0.5"/>
  <text x="730" y="330" text-anchor="middle" font-family="system-ui, sans-serif" font-size="9" fill="#4ADE80">Booked</text>
  <rect x="540" y="344" width="228" height="1" fill="#334155" fill-opacity="0.5"/>

  <!-- Enquiry 4 -->
  <circle cx="548" cy="366" r="14" fill="#4A1942"/>
  <text x="548" y="370" text-anchor="middle" font-family="system-ui, sans-serif" font-size="11" font-weight="600" fill="#F9A8D4">SP</text>
  <text x="570" y="361" font-family="system-ui, sans-serif" font-size="11" font-weight="600" fill="white">Sam Park</text>
  <text x="570" y="373" font-family="system-ui, sans-serif" font-size="10" fill="#64748B">Lot 7, Harvest Estate · 1d</text>
  <rect x="700" y="356" width="60" height="18" rx="5" fill="#334155"/>
  <text x="730" y="368" text-anchor="middle" font-family="system-ui, sans-serif" font-size="9" fill="#94A3B8">New</text>
  <rect x="540" y="382" width="228" height="1" fill="#334155" fill-opacity="0.5"/>

  <!-- Agent performance mini -->
  <text x="548" y="408" font-family="system-ui, sans-serif" font-size="11" font-weight="600" fill="#94A3B8">Agent Activity</text>
  <text x="548" y="424" font-family="system-ui, sans-serif" font-size="10" fill="#64748B">M. Chen</text>
  <rect x="600" y="416" width="80" height="6" rx="3" fill="#334155"/>
  <rect x="600" y="416" width="64" height="6" rx="3" fill="#0D9488"/>
  <text x="688" y="424" font-family="system-ui, sans-serif" font-size="10" fill="#64748B">8 deals</text>

  <text x="548" y="440" font-family="system-ui, sans-serif" font-size="10" fill="#64748B">S. Patel</text>
  <rect x="600" y="432" width="80" height="6" rx="3" fill="#334155"/>
  <rect x="600" y="432" width="48" height="6" rx="3" fill="#0D9488" fill-opacity="0.7"/>
  <text x="688" y="440" font-family="system-ui, sans-serif" font-size="10" fill="#64748B">6 deals</text>

  <text x="548" y="456" font-family="system-ui, sans-serif" font-size="10" fill="#64748B">L. Torres</text>
  <rect x="600" y="448" width="80" height="6" rx="3" fill="#334155"/>
  <rect x="600" y="448" width="32" height="6" rx="3" fill="#0D9488" fill-opacity="0.5"/>
  <text x="688" y="456" font-family="system-ui, sans-serif" font-size="10" fill="#64748B">4 deals</text>
</svg>